<?xml version="1.0" standalone="no"?>
<!DOCTYPE svg PUBLIC "-//W3C//DTD SVG 20010904//EN"
 "http://www.w3.org/TR/2001/REC-SVG-20010904/DTD/svg10.dtd">
<svg version="1.0" xmlns="http://www.w3.org/2000/svg"
 width="630.000000pt" height="630.000000pt" viewBox="0 0 630.000000 630.000000"
 preserveAspectRatio="xMidYMid meet">
<metadata>
Created by potrace 1.14, written by Peter Selinger 2001-2017
</metadata>
<g transform="translate(0.000000,630.000000) scale(0.100000,-0.100000)"
fill="#000000" stroke="none">
<path d="M2799 6296 c-2 -2 -42 -7 -88 -10 -47 -4 -87 -9 -90 -11 -3 -1 -37
-6 -76 -10 -38 -3 -72 -8 -75 -10 -4 -2 -22 -7 -41 -10 -19 -3 -54 -11 -79
-16 -25 -6 -52 -12 -60 -14 -138 -28 -383 -115 -555 -195 -105 -49 -305 -157
-315 -170 -3 -4 -12 -9 -20 -12 -27 -10 -243 -168 -329 -242 -136 -114 -314
-296 -402 -407 -18 -24 -38 -49 -44 -55 -5 -6 -16 -20 -23 -30 -7 -11 -35 -50
-63 -89 -222 -309 -405 -736 -479 -1120 -6 -27 -12 -61 -15 -75 -3 -14 -7 -43
-10 -65 -3 -22 -8 -56 -10 -75 -17 -124 -20 -203 -20 -530 0 -450 7 -530 72
-820 105 -474 353 -958 673 -1314 64 -72 234 -240 289 -286 29 -25 59 -50 66
-57 7 -7 64 -50 127 -96 183 -133 374 -241 608 -344 158 -70 486 -167 630
-187 25 -3 72 -11 105 -16 111 -19 249 -25 580 -25 289 0 516 8 534 19 3 2 29
6 56 9 28 3 71 11 98 16 26 6 64 14 85 17 20 3 40 8 43 10 3 2 20 6 37 9 42 7
253 71 322 96 284 108 542 248 775 424 134 101 180 141 310 270 89 89 123 126
220 240 86 101 289 412 317 484 5 14 15 33 22 41 43 51 199 463 231 608 3 12
7 30 10 39 2 10 15 72 28 138 46 224 52 310 52 725 0 303 -8 509 -20 530 -1 3
-6 33 -9 67 -4 35 -8 68 -11 75 -2 7 -6 29 -9 49 -9 64 -73 301 -109 404 -56
161 -86 232 -162 380 -264 517 -643 923 -1143 1224 -184 111 -434 222 -652
289 -77 24 -252 69 -295 76 -40 6 -119 19 -125 21 -3 1 -36 5 -75 9 -38 5 -79
11 -90 14 -23 5 -790 14 -796 8z"/>
</g>
</svg>
